<svg xmlns="http://www.w3.org/2000/svg" fill="none" viewBox="0 0 201 16"><path fill="#1A1A1A" d="M12.719 2.647V.22H.11v2.426h4.857V15.22H7.51V2.646h5.207z"/><path fill="#1A1A1A" fill-rule="evenodd" d="M27.305 15.22L21.816.22h-2.71l-5.42 14.999h2.463l1.164-3.312h6.117l1.165 3.312h2.71zm-4.526-5.243H17.94l1.703-4.644c.288-.775.52-1.57.695-2.378h.044c.18.822.381 1.533.673 2.31l1.724 4.712z" clip-rule="evenodd"/><path fill="#1A1A1A" d="M48.262 15.22L45.955.22h-2.934l-2.98 8.756c-.359 1.11-.605 1.864-.829 2.976h-.045c-.18-.977-.47-1.976-.828-3.065L35.425.22h-2.911L30.25 15.22h2.486l.964-7.755c.157-1.422.314-2.599.403-3.888h.046c.178 1.09.559 2.378.962 3.554l2.712 8.089h2.531l2.844-8.71c.381-1.112.606-2.089.785-2.933h.045c.112.978.224 2.066.47 3.666l1.187 7.977h2.577z"/><path fill="#1A1A1A" fill-rule="evenodd" d="M64.83 15.22L59.342.22H56.63L51.21 15.22h2.464l1.165-3.312h6.115l1.165 3.312h2.712zm-4.526-5.243h-4.839l1.703-4.644c.292-.8.539-1.622.695-2.378h.045c.179.822.381 1.533.672 2.31l1.724 4.712zM78.944 15.219l-3.987-5.221c-.381-.488-.85-1.066-1.277-1.6C76.144 8.134 77.96 6.6 77.96 4.2c0-2.976-2.15-4.066-5.287-4.066-1.701 0-2.957.023-4.055.088V15.22h2.442V8.732h.112l4.705 6.487h3.068zM75.405 4.465c0 1.49-1.186 2.49-3.158 2.49-.539 0-.964-.023-1.188-.044V2.156a20.98 20.98 0 011.277-.045c2.039 0 3.07.711 3.07 2.354zM94.995 15.22L89.505.22h-2.71L81.373 15.22h2.465l1.165-3.312h6.115l1.166 3.312h2.71zM90.47 9.977h-4.84l1.702-4.644c.288-.775.52-1.57.695-2.378h.045c.179.822.38 1.533.672 2.31l1.726 4.712z" clip-rule="evenodd"/><path fill="#1A1A1A" d="M115.754 14.5l-.674-2.388c-.943.39-1.703.665-2.904.717-.97.042-1.915-.085-2.791-.535a2.883 2.883 0 01-.674-.458 3.658 3.658 0 01-.963-1.528c-.179-.577-.249-1.22-.288-1.822-.076-1.196.003-2.436.522-3.535.23-.487.554-.982.973-1.327 1.037-.854 2.41-1.025 3.704-.894a8.639 8.639 0 012.503.666l.577-2.424c-.551-.317-2.169-.864-3.444-.854-5.085.038-7.46 3.399-7.46 8.065 0 4 1.859 7.243 6.922 7.243 1.456 0 2.855-.482 3.997-.926z"/><path fill="#1A1A1A" fill-rule="evenodd" d="M132.832 7.533c0-5.022-2.733-7.533-6.81-7.533-3.988 0-7.259 2.911-7.259 7.889 0 4.599 2.217 7.554 6.811 7.554 4.009 0 7.258-2.933 7.258-7.91zm-2.598.243c0 3.735-2.241 5.51-4.481 5.51-2.979 0-4.39-2.288-4.39-5.687 0-3.6 2.105-5.465 4.434-5.465 2.823 0 4.437 2.021 4.437 5.642z" clip-rule="evenodd"/><path fill="#1A1A1A" d="M153.95 15.22L151.643.22h-2.935l-2.979 8.756c-.359 1.11-.605 1.864-.83 2.976h-.045c-.178-.977-.47-1.976-.828-3.065L141.113.22h-2.912l-2.262 14.999h2.486l.964-7.755c.157-1.422.313-2.599.403-3.888h.045c.179 1.09.56 2.378.963 3.554l2.71 8.089h2.532l2.845-8.71c.38-1.112.605-2.089.784-2.933h.045c.112.978.224 2.066.471 3.666l1.187 7.977h2.576z"/><path fill="#1A1A1A" fill-rule="evenodd" d="M171.028 7.533c0-5.022-2.735-7.533-6.811-7.533-3.988 0-7.258 2.911-7.258 7.889 0 4.599 2.217 7.554 6.81 7.554 4.01 0 7.259-2.933 7.259-7.91zm-2.599.243c0 3.735-2.241 5.51-4.481 5.51-2.979 0-4.39-2.288-4.39-5.687 0-3.6 2.105-5.465 4.435-5.465 2.822 0 4.436 2.021 4.436 5.642z" clip-rule="evenodd"/><path fill="#1A1A1A" d="M153.95 15.22L151.643.22h-2.935l-2.979 8.756c-.359 1.11-.605 1.864-.83 2.976h-.045c-.178-.977-.47-1.976-.828-3.065L141.113.22h-2.912l-2.262 14.999h2.486l.964-7.755c.157-1.422.313-2.599.403-3.888h.045c.179 1.09.56 2.378.963 3.554l2.71 8.089h2.532l2.845-8.71c.38-1.112.605-2.089.784-2.933h.045c.112.978.224 2.066.471 3.666l1.187 7.977h2.576z"/><path fill="#1A1A1A" fill-rule="evenodd" d="M171.028 7.533c0-5.022-2.735-7.533-6.811-7.533-3.988 0-7.258 2.911-7.258 7.889 0 4.599 2.217 7.554 6.81 7.554 4.01 0 7.259-2.933 7.259-7.91zm-2.599.243c0 3.735-2.241 5.51-4.481 5.51-2.979 0-4.39-2.288-4.39-5.687 0-3.6 2.105-5.465 4.435-5.465 2.822 0 4.436 2.021 4.436 5.642z" clip-rule="evenodd"/><path fill="#1A1A1A" d="M182.324 15.22v-2.11h-5.198V.222h-2.442V15.22h7.64zM193.871 15.22v-2.11h-5.198V.222h-2.441V15.22h7.639zM200.106.221h-2.619V15.22h2.619V.22z"/></svg>